<?xml version="1.0" standalone="no"?>
<!DOCTYPE svg PUBLIC "-//W3C//DTD SVG 20010904//EN"
 "http://www.w3.org/TR/2001/REC-SVG-20010904/DTD/svg10.dtd">
<svg version="1.0" xmlns="http://www.w3.org/2000/svg"
 width="300.000000pt" height="300.000000pt" viewBox="0 0 300.000000 300.000000"
 preserveAspectRatio="xMidYMid meet">
<metadata>
Created by potrace 1.10, written by Peter Selinger 2001-2011
</metadata>
<g transform="translate(0.000000,300.000000) scale(0.100000,-0.100000)"
fill="#000000" stroke="none">
<path d="M307 2881 c-10 -4 7 -7 41 -6 33 0 55 3 49 7 -15 9 -66 9 -90 -1z"/>
<path d="M437 2751 c3 -11 0 -28 -6 -38 -10 -17 -10 -17 -11 0 0 23 -17 22
-30 -3 -8 -16 -6 -21 12 -30 23 -11 23 -11 3 5 -20 17 -20 17 0 15 40 -4 45 0
45 35 0 19 -4 35 -9 35 -5 0 -7 -9 -4 -19z"/>
<path d="M329 2711 c7 -13 8 -21 3 -17 -16 9 -26 -14 -13 -27 9 -9 14 -9 20 2
7 11 12 11 30 0 27 -17 26 -23 -1 -38 -13 -6 -16 -10 -6 -7 9 3 19 2 23 -2 4
-4 11 -8 16 -8 5 -1 13 -2 18 -3 5 0 12 -9 14 -18 4 -15 5 -15 6 -2 0 9 -8 24
-19 34 -11 10 -20 22 -20 26 0 8 -32 42 -65 69 -17 14 -18 14 -6 -9z"/>
<path d="M647 2710 c3 -14 7 -52 7 -86 1 -33 6 -61 11 -61 6 0 10 26 10 59 0
32 -3 58 -7 58 -3 0 -11 12 -17 28 -9 22 -10 22 -4 2z"/>
<path d="M1425 2623 c95 -7 213 -7 208 0 -2 4 -59 6 -126 5 -67 -1 -104 -3
-82 -5z"/>
<path d="M1445 2573 c-184 -27 -335 -120 -428 -261 -44 -67 -88 -168 -86 -200
0 -9 9 8 20 38 36 105 73 164 149 240 115 115 245 170 401 170 109 0 173 -14
264 -59 185 -92 300 -256 324 -464 8 -69 8 -70 10 -20 4 169 -123 381 -284
473 -104 59 -274 98 -370 83z"/>
<path d="M1016 2428 c-25 -29 -46 -57 -46 -62 0 -5 10 4 22 20 12 16 35 44 52
62 16 17 27 32 24 32 -4 0 -27 -24 -52 -52z"/>
<path d="M210 2448 c0 -4 9 -8 20 -8 11 0 20 -6 20 -12 0 -9 3 -8 9 2 6 8 8
18 5 22 -6 10 -54 6 -54 -4z"/>
<path d="M296 2450 c-11 -4 -15 -9 -10 -13 6 -3 16 -2 23 2 7 5 28 5 47 1 25
-6 34 -4 34 5 0 13 -62 17 -94 5z"/>
<path d="M150 2405 c0 -6 73 -57 83 -59 7 -1 18 -5 25 -10 11 -7 11 -4 1 12
-8 12 -19 17 -32 14 -14 -4 -18 -1 -13 7 4 6 4 11 -1 10 -13 -3 -43 13 -38 20
2 4 -2 8 -10 8 -8 0 -15 -1 -15 -2z"/>
<path d="M2093 2269 c12 -28 23 -46 25 -40 3 9 -35 91 -42 91 -3 0 5 -23 17
-51z"/>
<path d="M1462 2250 c-27 -25 -29 -71 -4 -92 32 -28 47 -32 20 -5 -16 14 -28
33 -28 41 0 25 12 46 23 39 6 -3 7 -1 3 5 -4 7 4 14 20 18 22 6 32 2 51 -20
13 -15 23 -31 23 -36 0 -5 -15 -26 -32 -47 -18 -20 -28 -34 -23 -31 18 11 75
-23 90 -52 8 -16 17 -46 21 -69 6 -36 8 -39 19 -24 10 14 10 20 -1 31 -8 7
-14 23 -14 34 0 24 -61 88 -84 88 -13 0 -11 5 9 25 30 31 32 54 4 89 -25 32
-66 34 -97 6z"/>
<path d="M1166 2215 c-9 -9 -16 -22 -16 -28 0 -6 7 -1 16 11 22 32 73 27 93
-10 15 -25 14 -29 -9 -54 -15 -16 -19 -25 -10 -22 8 3 21 16 29 29 12 22 12
29 0 55 -11 23 -22 30 -50 32 -24 2 -42 -3 -53 -13z"/>
<path d="M1757 2212 c-29 -32 -15 -102 20 -102 15 0 15 -2 1 -17 -9 -10 -23
-33 -32 -50 -9 -18 -24 -33 -33 -33 -9 0 -14 -3 -10 -6 14 -14 46 10 61 45 10
26 24 42 44 49 60 21 83 80 44 115 -25 22 -75 21 -95 -1z m93 -11 c5 -11 10
-27 10 -35 0 -20 -35 -56 -55 -56 -21 0 -55 36 -55 59 0 47 78 71 100 32z"/>
<path d="M1442 2117 c-23 -13 -44 -40 -55 -69 -10 -29 1 -21 18 12 9 17 30 40
48 50 35 22 26 27 -11 7z"/>
<path d="M1184 2113 c3 -3 16 -11 28 -17 12 -6 31 -29 42 -51 12 -22 30 -41
41 -43 16 -4 15 0 -7 18 -16 12 -28 28 -28 35 0 18 -36 52 -62 58 -11 3 -17 3
-14 0z"/>
<path d="M1507 2078 c3 -18 10 -40 15 -48 7 -11 8 -8 4 10 -3 14 -6 35 -6 48
0 12 -4 22 -10 22 -5 0 -7 -14 -3 -32z"/>
<path d="M1152 2088 c-14 -18 -20 -204 -7 -217 7 -7 20 -7 40 -1 l30 10 -31
-5 -32 -4 -1 104 c-2 90 0 105 16 114 10 6 13 11 7 11 -6 0 -16 -6 -22 -12z"/>
<path d="M1856 2076 c22 -34 17 -203 -6 -198 -12 3 -13 1 -2 -9 24 -25 37 7
37 94 0 75 2 82 20 82 19 0 20 -6 18 -105 -4 -181 -8 -240 -15 -240 -5 0 -8
27 -8 60 l0 60 -44 0 c-25 0 -47 -3 -49 -7 -3 -5 15 -6 39 -4 l44 3 0 -62 c0
-53 2 -61 18 -58 14 3 18 18 23 78 18 217 6 325 -33 292 -12 -10 -17 -7 -26
13 -6 14 -16 25 -22 25 -6 0 -3 -11 6 -24z"/>
<path d="M915 2025 c-4 -35 -3 -86 2 -112 8 -41 9 -32 9 65 1 61 0 112 -2 112
-1 0 -6 -29 -9 -65z"/>
<path d="M1095 2056 c-17 -12 -18 -26 -11 -182 4 -93 11 -173 15 -177 18 -18
31 6 31 59 l0 54 35 0 35 0 0 -61 c0 -52 2 -60 18 -57 10 2 17 13 18 28 1 22
0 22 -3 3 -8 -45 -23 -22 -23 37 l0 60 -45 0 -45 0 0 -60 c0 -33 -4 -60 -8
-60 -10 0 -22 152 -22 274 0 73 1 78 20 73 11 -3 20 -1 20 3 0 16 -17 19 -35
6z"/>
<path d="M1430 1988 c0 -62 5 -60 13 5 4 28 3 47 -3 47 -6 0 -10 -23 -10 -52z"/>
<path d="M1574 1990 c1 -28 4 -50 9 -50 10 0 9 88 -1 94 -5 3 -9 -17 -8 -44z"/>
<path d="M1381 2007 c0 -10 -5 -16 -10 -13 -5 4 -4 -8 2 -25 10 -27 12 -28 15
-10 2 11 1 31 -1 44 -3 16 -5 17 -6 4z"/>
<path d="M1250 1946 c0 -19 5 -26 19 -26 11 0 26 -7 34 -15 8 -8 17 -11 21 -8
8 8 -25 32 -46 33 -10 0 -18 6 -18 13 0 11 11 12 48 6 26 -4 51 -3 57 2 5 5
-9 9 -37 9 -26 0 -53 3 -62 6 -12 5 -16 0 -16 -20z"/>
<path d="M1697 1961 c-47 -6 -47 -6 -27 -23 17 -15 20 -15 20 -3 0 8 9 15 19
15 11 0 26 3 35 6 9 3 16 1 16 -5 0 -6 -11 -16 -24 -21 -13 -5 -27 -13 -30
-19 -4 -6 -13 -8 -21 -4 -8 3 -15 0 -15 -7 0 -6 5 -8 10 -5 6 4 10 -21 11 -67
2 -96 10 -132 32 -136 35 -7 45 14 41 91 l-4 72 43 -1 42 -2 -40 7 c-54 9 -63
-3 -55 -76 8 -67 4 -85 -19 -81 -18 4 -29 57 -30 144 -1 55 11 74 46 74 18 0
23 6 23 25 0 14 -5 24 -12 23 -7 0 -35 -4 -61 -7z"/>
<path d="M2083 1886 c-16 -101 -74 -221 -142 -298 -113 -126 -255 -187 -439
-190 -101 -1 -103 -1 -42 -8 196 -22 390 64 522 231 68 84 125 240 116 314 -2
20 -7 3 -15 -49z"/>
<path d="M1585 1897 c-2 -7 -6 -46 -9 -88 -7 -91 -13 -111 -35 -107 -11 3 -16
14 -16 41 0 20 -3 37 -7 37 -5 0 -8 -18 -8 -39 0 -32 4 -41 21 -46 36 -12 48
13 55 112 6 82 9 90 25 86 11 -3 19 -3 19 0 0 11 -41 15 -45 4z"/>
<path d="M1344 1795 c1 -96 2 -100 24 -103 19 -3 22 1 21 25 -2 23 -2 24 -6 6
-2 -13 -11 -23 -18 -23 -11 0 -15 22 -18 98 l-3 97 0 -100z"/>
<path d="M1493 1873 c-7 -2 -13 -14 -12 -26 0 -22 0 -22 9 1 11 26 30 29 30 5
0 -15 2 -16 10 -3 13 21 -9 35 -37 23z"/>
<path d="M931 1849 c-1 -25 34 -119 64 -172 37 -65 142 -168 213 -210 58 -34
143 -67 171 -67 9 0 -14 11 -51 24 -92 33 -147 66 -221 136 -72 67 -123 147
-154 240 -12 36 -22 58 -22 49z"/>
<path d="M1312 1775 c-1 -27 -6 -56 -11 -64 -14 -23 -39 -5 -44 31 l-4 33 1
-34 c1 -43 28 -63 51 -40 12 12 15 30 12 70 l-3 54 -2 -50z"/>
<path d="M1780 1758 c4 -47 9 -63 20 -63 11 0 15 12 16 45 l1 45 -4 -42 c-6
-64 -23 -52 -23 17 0 33 -3 60 -7 60 -5 0 -6 -28 -3 -62z"/>
<path d="M1028 1548 c39 -49 213 -158 252 -158 8 0 -21 18 -65 39 -44 21 -107
60 -140 87 -33 26 -54 41 -47 32z"/>
<path d="M1483 1363 c26 -2 67 -2 90 0 23 2 2 3 -48 3 -49 0 -68 -1 -42 -3z"/>
<path d="M446 1194 c-4 -10 -2 -22 3 -27 7 -7 7 -15 0 -24 -14 -16 7 -26 48
-21 36 4 40 41 6 46 -13 2 -23 8 -23 13 0 6 9 7 21 4 15 -5 20 -3 17 6 -7 22
-64 24 -72 3z"/>
<path d="M540 1165 c0 -41 2 -45 24 -45 14 0 28 -5 32 -11 4 -8 -18 -10 -74
-8 -45 2 -84 0 -88 -4 -4 -4 477 -7 1069 -7 593 0 1077 3 1077 8 0 4 -78 7
-172 6 -95 -1 -188 1 -205 4 -31 4 -33 7 -33 43 0 24 4 38 11 37 6 -2 14 3 16
10 3 8 -9 12 -41 12 -45 0 -61 -12 -31 -24 9 -3 15 -18 15 -40 0 -19 5 -36 11
-38 11 -4 -340 -4 -533 0 l-98 2 0 40 c0 24 4 39 11 37 6 -1 14 4 16 11 3 8
-9 12 -41 12 -35 0 -46 -4 -46 -16 0 -8 5 -12 10 -9 11 7 15 -3 24 -51 4 -28
3 -31 -18 -27 -30 6 -51 40 -35 59 20 25 3 44 -41 44 l-40 0 0 -45 c0 -33 4
-45 15 -45 8 0 15 7 15 15 0 8 5 15 10 15 6 0 10 -5 10 -11 0 -7 8 -18 18 -25
14 -12 -33 -14 -310 -13 l-328 1 0 40 c0 31 4 41 20 45 54 14 6 23 -125 23
l-145 0 0 -45z m125 -17 c0 -33 -3 -38 -22 -38 -16 0 -21 4 -17 15 5 11 -1 15
-26 15 -17 0 -29 4 -26 9 3 5 15 7 26 4 11 -3 20 0 20 6 0 6 -9 11 -19 11 -11
0 -23 5 -26 11 -5 7 9 9 42 7 l48 -3 0 -37z m95 9 c0 -18 4 -37 10 -43 6 -6
-6 -8 -33 -6 -37 3 -42 7 -44 30 -3 42 4 52 37 52 27 0 30 -3 30 -33z"/>
<path d="M840 1165 l0 -45 41 0 c24 0 38 4 34 10 -3 6 -15 10 -26 10 -15 0
-19 7 -19 35 0 24 -5 35 -15 35 -11 0 -15 -12 -15 -45z"/>
<path d="M930 1165 l0 -45 40 0 c22 0 40 5 40 10 0 6 -11 10 -25 10 -14 0 -25
4 -25 9 0 5 9 7 20 4 11 -3 20 0 20 6 0 6 -9 11 -20 11 -11 0 -20 5 -20 10 0
6 11 10 25 10 14 0 25 5 25 10 0 6 -18 10 -40 10 l-40 0 0 -45z"/>
<path d="M1032 1197 c-14 -16 -4 -32 26 -41 12 -4 20 -12 17 -17 -4 -5 -14 -5
-25 1 -13 7 -21 7 -25 0 -8 -13 17 -22 52 -18 39 4 40 42 1 46 -16 2 -28 8
-28 14 0 6 10 8 25 4 18 -5 25 -2 25 9 0 19 -53 21 -68 2z"/>
<path d="M1122 1165 c2 -46 27 -66 29 -22 l0 22 11 -22 c13 -26 23 -29 31 -9
3 8 -1 20 -9 26 -8 7 -14 21 -14 31 0 14 -7 19 -25 19 -23 0 -24 -3 -23 -45z"/>
<path d="M1197 1204 c-11 -11 -8 -44 3 -44 6 0 10 -9 10 -20 0 -11 6 -20 13
-20 19 0 16 84 -4 88 -8 1 -18 0 -22 -4z"/>
<path d="M1271 1188 c-24 -66 -25 -65 24 -65 25 0 45 2 45 5 0 3 -5 22 -12 43
-13 45 -43 53 -57 17z"/>
<path d="M1701 1196 c-7 -8 -10 -20 -6 -26 10 -15 35 -12 35 5 0 12 7 14 26 9
20 -5 25 -3 22 7 -6 20 -62 23 -77 5z"/>
<path d="M1801 1188 c-15 -40 2 -63 45 -63 37 0 39 2 42 34 4 38 -9 51 -51 51
-20 0 -30 -6 -36 -22z m63 -14 c7 -19 -1 -34 -19 -34 -8 0 -16 4 -19 9 -9 14
4 41 19 41 7 0 16 -7 19 -16z"/>
<path d="M1910 1165 c0 -43 1 -45 30 -45 17 0 33 0 37 -1 4 0 9 5 12 12 2 8
-6 10 -25 7 -28 -4 -29 -3 -26 34 3 30 1 38 -12 38 -12 0 -16 -10 -16 -45z"/>
<path d="M2000 1177 c0 -42 15 -57 57 -57 30 0 33 3 33 29 0 16 3 36 6 45 4
11 0 16 -13 16 -14 0 -18 -7 -18 -32 0 -23 -5 -34 -17 -36 -15 -3 -18 4 -18
32 0 25 -4 36 -15 36 -10 0 -15 -10 -15 -33z"/>
<path d="M2210 1166 c0 -43 11 -63 28 -52 14 8 1 96 -14 96 -10 0 -14 -13 -14
-44z"/>
<path d="M2268 1184 c-17 -38 0 -59 48 -59 35 0 39 3 42 28 4 37 -13 57 -49
57 -22 0 -32 -7 -41 -26z m60 -22 c2 -14 -2 -22 -12 -22 -19 0 -29 17 -22 36
8 22 30 12 34 -14z"/>
<path d="M2380 1159 c0 -36 4 -49 13 -46 6 2 11 14 9 25 -4 25 13 30 21 8 3
-8 15 -20 26 -26 20 -10 21 -8 21 40 0 37 -4 50 -12 47 -7 -2 -12 -11 -10 -21
4 -22 -11 -20 -26 4 -23 38 -42 25 -42 -31z"/>
<path d="M2501 1201 c-18 -12 -7 -39 21 -51 21 -10 21 -10 -4 -5 -36 7 -39
-20 -3 -29 25 -6 65 7 65 22 -1 20 -20 34 -39 29 -15 -3 -21 0 -21 10 0 11 7
14 26 9 19 -5 25 -3 22 6 -5 16 -48 22 -67 9z"/>
<path d="M1745 1151 c7 -23 -4 -28 -22 -10 -6 6 -16 8 -22 4 -21 -12 0 -25 40
-25 36 0 40 2 37 22 -2 13 -11 24 -21 26 -15 3 -18 0 -12 -17z"/>
<path d="M1247 993 c-15 -15 -6 -33 18 -33 18 0 25 5 25 20 0 11 -4 20 -10 20
-5 0 -10 -6 -10 -12 0 -10 -2 -10 -8 0 -5 7 -11 9 -15 5z"/>
<path d="M1303 985 c-8 -23 6 -33 20 -15 7 9 20 14 31 12 11 -2 16 0 12 7 -11
16 -56 13 -63 -4z"/>
<path d="M1390 960 c0 -43 16 -55 23 -17 l4 22 2 -22 c1 -24 15 -30 27 -12 3
6 1 16 -5 22 -6 6 -11 19 -11 29 0 11 -7 18 -20 18 -17 0 -20 -7 -20 -40z"/>
<path d="M1454 969 c3 -17 6 -35 6 -40 0 -5 6 -9 13 -9 8 0 13 15 13 40 1 34
-2 40 -19 40 -17 0 -19 -5 -13 -31z"/>
<path d="M1516 976 c-3 -13 -8 -30 -11 -38 -4 -10 5 -13 35 -13 45 0 44 -3 28
42 -14 39 -43 44 -52 9z"/>
<path d="M1594 985 c3 -9 6 -28 6 -41 0 -13 5 -24 11 -24 6 0 9 9 6 19 -6 22
9 49 20 37 4 -5 3 -11 -4 -13 -10 -3 -10 -9 0 -24 19 -31 34 -22 33 19 -1 36
-2 37 -40 40 -32 3 -38 1 -32 -13z"/>
<path d="M1680 990 c0 -5 7 -10 15 -10 10 0 15 -10 15 -29 0 -17 5 -33 10 -36
11 -7 13 5 10 43 -1 14 4 22 14 22 9 0 16 5 16 10 0 6 -18 10 -40 10 -22 0
-40 -4 -40 -10z"/>
<path d="M804 958 c-6 -10 375 -15 389 -6 7 4 10 8 7 8 -57 5 -393 3 -396 -2z"/>
<path d="M1316 955 c-24 -18 -12 -35 25 -35 26 0 30 3 27 22 -4 27 -26 33 -52
13z"/>
<path d="M1755 950 c-4 -7 62 -10 189 -10 124 0 196 4 196 10 0 6 -70 10 -189
10 -116 0 -192 -4 -196 -10z"/>
<path d="M563 904 c-3 -8 -1 -26 5 -39 12 -26 5 -40 -13 -25 -8 7 -24 5 -49
-5 -36 -15 -65 -11 -65 10 0 5 -4 11 -10 13 -6 2 -11 -7 -11 -20 0 -36 -33
-172 -44 -180 -14 -10 10 -35 40 -42 32 -8 90 10 98 29 3 8 1 15 -3 15 -13 0
-42 133 -32 143 5 5 27 11 49 14 l41 5 3 -131 c3 -130 3 -131 -19 -131 -13 0
-23 -4 -23 -10 0 -5 -11 -10 -25 -10 -32 0 -32 -13 -1 -29 33 -18 114 -18 154
0 40 17 41 29 2 29 -16 0 -30 5 -30 10 0 6 -10 10 -21 10 -21 0 -21 2 -17 180
2 143 1 180 -10 180 -7 0 -15 -7 -19 -16z m-124 -169 c-1 -66 -3 -75 -20 -75
-10 0 -19 2 -19 6 0 14 32 144 36 144 2 0 4 -34 3 -75z m51 -72 c0 -2 -9 -3
-20 -3 -18 0 -20 6 -19 78 l0 77 19 -75 c11 -41 19 -76 20 -77z"/>
<path d="M2337 907 c-3 -8 -1 -20 4 -28 5 -8 9 -83 8 -166 l-1 -153 -25 0
c-14 0 -21 -4 -18 -10 4 -6 -7 -10 -25 -10 -21 0 -30 -4 -27 -12 2 -7 8 -13
13 -13 5 0 15 -4 23 -9 22 -14 123 -10 153 7 31 16 27 27 -9 27 -12 0 -23 5
-23 10 0 6 -9 10 -21 10 -20 0 -21 3 -18 177 3 156 1 178 -13 181 -8 2 -18 -3
-21 -11z"/>
<path d="M723 845 c6 -15 2 -16 -30 -12 -77 12 -86 12 -90 1 -2 -7 14 -14 41
-18 25 -4 48 -11 50 -15 6 -8 -20 -104 -36 -135 -13 -26 9 -46 55 -50 24 -3
44 2 57 13 20 16 20 16 -1 91 -11 41 -22 88 -23 104 -1 16 -8 32 -15 34 -10 3
-12 0 -8 -13z m-3 -110 c0 -72 -1 -75 -23 -75 l-24 0 20 75 c11 41 22 75 24
75 1 0 3 -34 3 -75z m50 -67 c0 -5 -9 -8 -20 -8 -18 0 -20 6 -19 73 l0 72 19
-65 c11 -36 19 -68 20 -72z"/>
<path d="M2195 850 c-3 -5 -1 -18 5 -29 5 -11 11 -41 12 -68 l1 -48 7 50 c7
54 12 49 31 -35 7 -30 15 -47 17 -38 2 9 -3 39 -12 67 l-14 50 30 10 c17 6 39
11 49 11 11 0 19 4 19 9 0 19 -20 21 -55 7 -38 -16 -65 -12 -65 10 0 16 -16
19 -25 4z"/>
<path d="M2500 844 c0 -14 -7 -16 -37 -11 -21 4 -47 8 -57 9 -10 2 -21 -3 -23
-9 -3 -8 4 -13 16 -13 34 0 72 -22 67 -39 -2 -9 -10 -40 -17 -68 -7 -29 -16
-53 -21 -53 -20 0 8 -30 37 -40 58 -19 117 9 96 47 -14 27 -41 135 -41 166 0
15 -4 27 -10 27 -5 0 -10 -7 -10 -16z m36 -151 l6 -33 -46 0 c-52 0 -50 -9
-20 100 l12 45 1 -69 c1 -38 4 -66 8 -62 4 4 7 38 6 74 l-2 67 14 -44 c8 -25
18 -60 21 -78z"/>
<path d="M969 838 c-1 -2 -3 -20 -4 -40 -2 -40 9 -50 44 -41 24 6 29 43 7 43
-8 0 -18 5 -22 11 -4 8 1 9 16 4 16 -5 21 -4 18 6 -4 12 -55 26 -59 17z"/>
<path d="M1063 833 c-21 -8 -16 -61 7 -73 27 -15 60 4 60 33 0 38 -29 56 -67
40z m44 -29 c8 -21 -13 -42 -28 -27 -13 13 -5 43 11 43 6 0 13 -7 17 -16z"/>
<path d="M1150 801 c0 -34 3 -39 27 -44 16 -3 31 -3 36 0 12 8 -3 23 -24 23
-14 0 -19 7 -19 30 0 17 -4 30 -10 30 -5 0 -10 -17 -10 -39z"/>
<path d="M1228 835 c-2 -3 -3 -19 0 -35 9 -65 82 -60 82 5 0 24 -5 35 -15 35
-10 0 -15 -10 -15 -30 0 -20 -5 -30 -15 -30 -10 0 -15 10 -15 30 0 27 -9 38
-22 25z"/>
<path d="M1320 830 c0 -5 7 -10 15 -10 10 0 15 -11 15 -35 0 -25 4 -35 15 -35
13 0 15 7 9 35 -5 28 -3 35 10 35 9 0 16 5 16 10 0 6 -18 10 -40 10 -22 0 -40
-4 -40 -10z"/>
<path d="M1413 798 c3 -59 27 -63 27 -4 0 33 -4 46 -14 46 -10 0 -14 -12 -13
-42z"/>
<path d="M1472 828 c-34 -34 6 -90 48 -68 25 13 28 65 4 74 -24 9 -39 7 -52
-6z m45 -24 c8 -21 -13 -42 -28 -27 -13 13 -5 43 11 43 6 0 13 -7 17 -16z"/>
<path d="M1560 794 c0 -27 4 -43 10 -39 6 3 10 13 10 22 0 15 2 14 18 0 30
-27 42 -20 42 23 0 22 -4 40 -10 40 -5 0 -10 -10 -10 -22 l0 -21 -23 21 c-13
12 -26 22 -30 22 -4 0 -7 -21 -7 -46z"/>
<path d="M1664 826 c-7 -19 3 -36 22 -36 8 0 14 -5 14 -11 0 -6 -9 -8 -20 -4
-11 3 -20 2 -20 -4 0 -13 33 -23 54 -15 25 10 19 39 -11 52 l-28 12 28 -6 c21
-3 28 -1 25 8 -7 19 -57 22 -64 4z"/>
<path d="M1780 801 c0 -44 18 -65 27 -31 3 13 11 19 19 16 8 -3 14 -1 14 4 0
6 -7 10 -15 10 -8 0 -15 5 -15 10 0 6 9 10 20 10 11 0 20 5 20 10 0 6 -16 10
-35 10 -34 0 -35 -1 -35 -39z"/>
<path d="M1872 828 c-21 -21 -14 -58 13 -68 31 -12 52 -4 60 21 14 43 -41 79
-73 47z m46 -30 c-2 -13 -7 -23 -13 -23 -5 0 -11 10 -13 23 -2 15 2 22 13 22
11 0 15 -7 13 -22z"/>
<path d="M1960 801 c0 -46 16 -63 29 -29 l8 23 7 -23 c13 -39 32 -26 32 21 -1
41 -2 42 -38 45 l-38 3 0 -40z"/>
<path d="M2171 723 c-17 -66 -19 -80 -7 -91 25 -26 126 -11 126 18 0 6 -27 10
-61 10 -53 0 -60 2 -55 18 16 53 28 113 24 118 -3 3 -15 -30 -27 -73z"/>
<path d="M1182 668 c-18 -18 -15 -26 16 -43 l27 -15 -27 6 c-36 8 -38 -13 -2
-22 18 -5 31 -1 42 11 11 11 13 19 6 22 -6 2 -20 11 -30 19 -18 14 -18 15 5 8
17 -4 22 -2 19 7 -6 19 -40 23 -56 7z"/>
<path d="M1262 638 c3 -40 5 -43 36 -46 18 -2 32 1 32 7 0 6 -9 11 -20 11 -11
0 -20 5 -20 11 0 5 4 8 9 4 5 -3 12 -1 16 5 3 5 -1 10 -9 10 -9 0 -16 5 -16
10 0 6 9 10 20 10 11 0 20 5 20 10 0 6 -16 10 -36 10 l-35 0 3 -42z"/>
<path d="M1340 671 c0 -5 7 -11 15 -15 9 -3 15 -18 15 -37 0 -19 4 -29 12 -27
7 3 12 18 13 34 0 24 5 30 28 32 25 3 27 1 27 -32 0 -25 4 -36 15 -36 10 0 15
10 15 30 0 18 6 33 15 36 37 14 8 24 -70 24 -47 0 -85 -4 -85 -9z"/>
<path d="M1520 636 l0 -46 36 0 c24 0 34 4 32 13 -3 6 -11 12 -19 12 -8 0 -16
13 -19 29 -9 50 -30 44 -30 -8z"/>
<path d="M1600 635 c0 -33 4 -45 13 -42 7 2 12 20 12 42 0 22 -5 40 -12 43 -9
2 -13 -10 -13 -43z"/>
<path d="M1648 639 c-4 -43 10 -65 19 -30 l6 22 19 -21 c29 -31 38 -24 38 26
0 32 -4 44 -12 41 -7 -2 -12 -11 -10 -21 4 -23 -15 -20 -28 4 -17 31 -28 24
-32 -21z"/>
<path d="M1749 659 c-8 -16 -8 -28 0 -46 9 -20 17 -23 44 -20 28 3 32 7 33 33
0 16 -4 35 -9 42 -15 19 -55 14 -68 -9z m51 -19 c-7 -4 -9 -13 -6 -19 4 -6 0
-11 -8 -11 -9 0 -16 8 -16 18 0 24 8 32 27 25 11 -4 12 -8 3 -13z"/>
<path d="M1144 506 c-3 -8 -4 -27 -2 -43 6 -51 78 -40 78 13 0 26 -3 28 -43
38 -19 5 -29 2 -33 -8z m54 -33 c-5 -25 -28 -28 -28 -4 0 12 6 21 16 21 9 0
14 -7 12 -17z"/>
<path d="M1247 513 c-13 -12 -8 -85 6 -80 6 2 12 18 12 36 0 36 -8 55 -18 44z"/>
<path d="M1298 509 c-25 -14 -22 -26 10 -44 24 -13 24 -15 5 -13 -12 2 -22 -1
-23 -7 0 -5 12 -10 27 -10 35 0 46 34 14 42 -12 3 -21 10 -21 15 0 5 9 6 20 3
24 -7 27 10 4 19 -19 7 -15 8 -36 -5z"/>
<path d="M1550 503 c0 -7 7 -13 16 -13 11 0 14 -8 12 -27 -2 -15 2 -28 10 -30
8 -3 12 6 12 26 0 21 5 31 15 31 33 0 12 18 -25 22 -28 2 -40 0 -40 -9z"/>
<path d="M1668 512 c-25 -3 -28 -7 -28 -43 0 -38 1 -39 35 -39 38 0 50 20 13
21 -22 0 -22 1 2 11 l25 11 -23 4 c-12 3 -20 8 -17 13 3 5 12 7 20 3 8 -3 15
0 15 5 0 15 -10 18 -42 14z"/>
<path d="M1748 513 c-25 -6 -22 -38 5 -52 l22 -11 -24 6 c-17 4 -22 2 -19 -7
7 -22 62 -18 66 4 3 12 -4 20 -17 24 -12 3 -21 9 -21 13 0 5 10 6 23 2 20 -5
21 -4 8 11 -7 9 -16 16 -20 16 -3 -1 -14 -3 -23 -6z"/>
<path d="M1815 511 c-3 -2 -5 -13 -5 -24 0 -16 3 -17 15 -7 11 9 15 9 15 1 0
-7 5 -9 10 -6 19 12 11 44 -10 42 -12 -1 -23 -3 -25 -6z"/>
<path d="M1370 470 c0 -29 4 -40 15 -40 8 0 15 6 15 14 0 7 9 16 20 19 12 3
20 14 20 26 0 17 -6 21 -35 21 -34 0 -35 -1 -35 -40z"/>
<path d="M1462 473 c2 -31 7 -39 26 -41 13 -2 30 2 38 8 19 17 19 70 -1 70
-10 0 -15 -10 -15 -30 0 -20 -5 -30 -15 -30 -10 0 -15 10 -15 30 0 17 -5 30
-11 30 -6 0 -9 -16 -7 -37z"/>
</g>
</svg>
